<svg xmlns="http://www.w3.org/2000/svg" xmlns:xlink="http://www.w3.org/1999/xlink" width="272.643" height="36.505" viewBox="0 0 272.643 36.505">
  <defs>
    <clipPath id="clip-path">
      <rect id="Rectangle_4" data-name="Rectangle 4" width="272.643" height="36.505" fill="#b88a56"/>
    </clipPath>
  </defs>
  <g id="Group_5" data-name="Group 5" transform="translate(0 0)">
    <g id="Group_4" data-name="Group 4" transform="translate(0 0)" clip-path="url(#clip-path)">
      <path id="Path_8" data-name="Path 8" d="M9.889,24.456l-.443-.313-1.226-.87c-4.661-3.4-4.528-8.5-.179-9.336v-.9c-5,.3-6.67,3.227-6.67,3.227-2.709,4.291-1.458,8.179,4.21,12.513l3.864,2.659.69.475Zm8.06-9.854a23.242,23.242,0,0,0-6.988-1.56v.83c5.547.916,6.93,5.4,7.22,8.822a.425.425,0,0,0,.847-.022l.254-5.962A2.187,2.187,0,0,0,17.949,14.6" transform="translate(0 -6.889)" fill="#b88a56"/>
      <path id="Path_9" data-name="Path 9" d="M17.129,40.338l-4.371-3.105L13,44.693l1.49,1.024c4.121,3.051,4.979,8.966.136,9.843A13.806,13.806,0,0,1,9.863,55.5a9.013,9.013,0,0,1-4.434-2.088c.007.017.013.035.021.052l0,.007a3,3,0,0,0,1.094,1.091c.312.184.643.362.982.529a12.862,12.862,0,0,0,6.4,1.04A9.327,9.327,0,0,0,21,52.761c3.142-4.273,1.577-8.611-3.867-12.423" transform="translate(-2.868 -19.666)" fill="#b88a56"/>
      <path id="Path_10" data-name="Path 10" d="M18.446,35.579a2.715,2.715,0,0,1-.787-2.124l-.121-3.691-.247-7.46L16.849,8.968v24.76A2.539,2.539,0,0,1,16,35.658a3.061,3.061,0,0,1-1.984.625v.492h6.505v-.492a2.987,2.987,0,0,1-2.073-.7" transform="translate(-7.402 -4.737)" fill="#b88a56"/>
      <path id="Path_11" data-name="Path 11" d="M19.716,1.875A1.866,1.866,0,1,1,17.851,0a1.87,1.87,0,0,1,1.866,1.875" transform="translate(-8.443 0)" fill="#b88a56"/>
      <text id="INESTIMABLE" transform="translate(36.429 27.309)" fill="#b88a56" font-size="26" font-family="FuturaPT-Medium, Futura PT" font-weight="500"><tspan x="0" y="0" letter-spacing="0.309em">I</tspan><tspan y="0" letter-spacing="0.31em">N</tspan><tspan y="0" letter-spacing="0.309em">E</tspan><tspan y="0" letter-spacing="0.29em">S</tspan><tspan y="0" letter-spacing="0.309em">TI</tspan><tspan y="0" letter-spacing="0.31em">MABL</tspan><tspan y="0">E</tspan></text>
    </g>
  </g>
</svg>
